HIERARCHY
ROOT Hips
{
	OFFSET 0.000000 0.000000 0.000000 
	CHANNELS 6 Xposition Yposition Zposition Zrotation Yrotation Xrotation
	JOINT LeftUpLeg
	{
		OFFSET 1.363060 -1.794630 0.839290 
		CHANNELS 3 Zrotation Yrotation Xrotation
		JOINT LeftLeg
		{
			OFFSET 2.448110 -6.726130 0.000000 
			CHANNELS 3 Zrotation Yrotation Xrotation
			JOINT LeftFoot
			{
				OFFSET 2.562200 -7.039590 0.000000 
				CHANNELS 3 Zrotation Yrotation Xrotation
				JOINT LeftToeBase
				{
					OFFSET 0.157640 -0.433110 2.322550 
					CHANNELS 3 Zrotation Yrotation Xrotation
					End Site
					{
						OFFSET 0.000000 0.000000 0.000000 
					}
				}
			}
		}
	}
	JOINT RightUpLeg
	{
		OFFSET -1.305520 -1.794630 0.839290 
		CHANNELS 3 Zrotation Yrotation Xrotation
		JOINT RightLeg
		{
			OFFSET -2.542530 -6.985550 0.000000 
			CHANNELS 3 Zrotation Yrotation Xrotation
			JOINT RightFoot
			{
				OFFSET -2.568260 -7.056230 0.000000 
				CHANNELS 3 Zrotation Yrotation Xrotation
				JOINT RightToeBase
				{
					OFFSET -0.164730 -0.452590 2.363150 
					CHANNELS 3 Zrotation Yrotation Xrotation
					End Site
					{
						OFFSET 0.000000 0.000000 0.000000 
					}
				}
			}
		}
	}
	JOINT Spine
	{
		OFFSET 0.028270 2.035590 -0.193380 
		CHANNELS 3 Zrotation Yrotation Xrotation
		JOINT Spine1
		{
			OFFSET 0.056720 2.048850 -0.042750 
			CHANNELS 3 Zrotation Yrotation Xrotation
			JOINT Neck1
			{
				OFFSET -0.054170 1.746240 0.172020 
				CHANNELS 3 Zrotation Yrotation Xrotation
				JOINT Head
				{
					OFFSET 0.104070 1.761360 -0.123970 
					CHANNELS 3 Zrotation Yrotation Xrotation
					End Site
					{
						OFFSET 0.000000 0.000000 0.000000 
					}
				}
			}
			JOINT LeftArm
			{
				OFFSET 3.362410 1.200890 -0.311210 
				CHANNELS 3 Zrotation Yrotation Xrotation
				JOINT LeftForeArm
				{
					OFFSET 4.983000 -0.000000 -0.000000 
					CHANNELS 3 Zrotation Yrotation Xrotation
					JOINT LeftHand
					{
						OFFSET 3.483560 -0.000000 -0.000000 
						CHANNELS 3 Zrotation Yrotation Xrotation
						JOINT LeftHandIndex1
						{
							OFFSET 0.715260 -0.000000 -0.000000 
							CHANNELS 3 Zrotation Yrotation Xrotation
							End Site
							{
								OFFSET 0.000000 0.000000 0.000000 
							}
						}
					}
				}
			}
			JOINT RightArm
			{
				OFFSET -3.136600 1.374050 -0.404650 
				CHANNELS 3 Zrotation Yrotation Xrotation
				JOINT RightForeArm
				{
					OFFSET -5.241900 -0.000000 -0.000000 
					CHANNELS 3 Zrotation Yrotation Xrotation
					JOINT RightHand
					{
						OFFSET -3.444170 -0.000000 -0.000000 
						CHANNELS 3 Zrotation Yrotation Xrotation
						JOINT RightHandIndex1
						{
							OFFSET -0.622530 -0.000000 -0.000000 
							CHANNELS 3 Zrotation Yrotation Xrotation
							End Site
							{
								OFFSET 0.000000 0.000000 0.000000 
							}
						}
					}
				}
			}
		}
	}
}
MOTION
Frames: 13
Frame Time: 0.041667
22.299968 17.857939 -20.027566 -4.202490 9.757990 11.875863 -12.870653 -1.070682 -35.377862 2.461565 11.327954 32.536988 0.385812 -1.594343 -8.042881 0.953400 6.218000 17.418300 20.709229 -0.392522 -31.435974 -12.876853 -18.248045 68.763620 -2.253066 0.622852 28.508463 -1.497800 -7.730500 21.898600 0.689764 7.340574 -4.217637 2.421241 3.599501 -2.721290 2.283613 -9.860785 6.371238 -2.217800 -4.792900 2.052300 -95.208864 19.259556 49.682800 33.305824 -43.691720 -10.651328 -0.259766 2.242882 -14.535066 -7.125000 0.000000 0.000000 90.819335 -5.748649 16.242427 -53.849719 54.624769 -27.612848 1.108563 -0.761354 -1.532158 7.125000 0.000000 0.000000 
22.324812 17.922067 -19.899841 -3.516432 9.446661 11.901459 -13.663270 -0.627469 -34.439414 2.252294 11.028731 31.592099 0.409907 -1.689491 -8.256713 0.938300 6.169900 17.278200 19.103421 1.070418 -33.825425 -13.812895 -18.602174 71.719558 -2.889148 -2.728271 31.559090 -2.087000 -9.045000 25.936200 0.631314 7.081030 -4.149478 2.675350 3.471081 -2.744223 2.314733 -9.529796 6.015361 -2.106900 -4.649300 1.883700 -95.626250 18.459024 49.437733 32.844957 -43.390342 -10.383404 -0.259312 2.244094 -14.440096 -7.125000 0.000000 0.000000 91.450943 -5.720124 15.858751 -52.710906 54.247506 -26.755203 1.083553 -0.730423 -2.596270 7.125000 0.000000 0.000000 
22.346896 17.883102 -19.780291 -2.812008 9.111386 11.851792 -14.420131 -0.387474 -33.776419 2.181710 10.917939 31.268329 0.418978 -1.486708 -8.788720 0.864700 5.929300 16.579500 18.041625 1.703125 -35.129048 -14.513806 -18.820483 73.962663 -3.302998 -1.455466 34.071980 -1.050100 -6.516200 18.289700 0.569257 6.826647 -4.073965 2.915532 3.344465 -2.766726 2.327206 -9.201465 5.735457 -2.014600 -4.502000 1.755800 -95.996973 17.553148 49.273846 32.280152 -42.992110 -10.057245 -0.250380 2.239624 -14.264043 -7.125000 0.000000 0.000000 92.061576 -5.695437 15.526752 -51.306120 53.750782 -25.707932 1.057585 -0.692673 -2.933052 7.125000 0.000000 0.000000 
22.380234 17.886181 -19.665519 -2.262090 8.756942 11.923042 -15.009565 -0.340342 -33.050178 2.062259 10.727160 30.694109 0.412023 -1.201097 -9.175684 0.917100 6.101600 17.079600 16.749662 2.908098 -37.098170 -15.249905 -19.029227 76.221199 -3.728468 -3.417779 35.890799 -1.360900 -7.384000 20.858200 0.506002 6.620463 -4.032762 3.009710 3.241174 -2.761121 2.332900 -8.885958 5.531792 -1.918000 -4.356400 1.670800 -96.329728 16.514045 49.283960 31.616542 -42.509797 -9.698569 -0.229548 2.240122 -14.088839 -7.125000 0.000000 0.000000 92.578468 -5.660959 15.157973 -49.643447 53.110154 -24.467179 1.028713 -0.666909 -2.863720 7.125000 0.000000 0.000000 
22.400195 17.952751 -19.528345 -2.082619 8.825814 11.704176 -15.123004 -0.395640 -31.992943 1.975853 10.584534 30.268843 0.423120 -1.091186 -9.530176 0.930200 6.143800 17.202400 16.266641 3.697574 -38.439288 -15.781281 -19.162541 77.860954 -3.434490 -2.591410 34.506109 -1.485900 -7.701300 21.810400 0.552081 6.336138 -3.983548 3.174373 3.096245 -2.745516 2.337910 -8.612050 5.476315 -1.833100 -4.223400 1.627500 -96.633293 15.370915 49.222985 30.870653 -41.977336 -9.346026 -0.210201 2.273138 -13.316494 -7.125000 0.000000 0.000000 92.998648 -5.660521 14.853841 -47.172412 52.047849 -22.632613 0.989783 -0.643148 -1.964751 7.125000 0.000000 0.000000 
22.424296 17.961032 -19.400726 -1.717443 8.751929 11.621756 -15.480644 -0.403144 -31.138695 1.877192 10.418328 29.774279 0.423414 -0.912539 -9.839219 0.929600 6.141900 17.196800 15.422536 4.528110 -40.086959 -16.359120 -19.288819 79.629490 -3.473507 -2.449189 34.724292 -1.486900 -7.703700 21.817700 0.543973 6.051422 -3.940489 3.304316 2.952472 -2.719743 2.350960 -8.311974 5.353192 -1.747300 -4.080000 1.561300 -96.910969 14.320758 49.133626 30.292669 -41.557495 -9.062402 -0.200821 2.292083 -12.713848 -7.125000 0.000000 0.000000 93.460125 -5.655577 14.498657 -45.258580 51.151966 -21.233703 0.952401 -0.621547 -1.613268 7.125000 0.000000 0.000000 
22.447866 17.968889 -19.270771 -1.416548 8.766593 11.539470 -15.762049 -0.462699 -30.277123 1.780022 10.250158 29.276080 0.421832 -0.744827 -10.098858 0.927200 6.134200 17.174400 14.712091 5.266954 -41.674648 -16.857228 -19.385104 81.147295 -3.389145 -1.971334 34.363588 -1.474500 -7.673000 21.725100 0.542482 5.729516 -3.905870 3.394417 2.789241 -2.670112 2.376917 -8.008399 5.277017 -1.661800 -3.931700 1.513000 -97.151194 13.264960 48.994268 29.784010 -41.189977 -8.822141 -0.196341 2.314331 -11.914550 -7.125000 0.000000 0.000000 93.889669 -5.652960 14.186890 -43.261641 50.136497 -19.791327 0.911584 -0.604207 -1.122720 7.125000 0.000000 0.000000 
22.471224 17.979294 -19.138375 -1.164236 8.853570 11.468412 -15.988867 -0.565716 -29.521001 1.730074 10.152786 29.006746 0.434424 -0.646824 -10.462837 0.922300 6.118500 17.128500 14.089433 5.958641 -43.256653 -17.309319 -19.461960 82.511901 -3.210515 -1.527733 33.486301 -1.532900 -7.816700 22.158600 0.545331 5.383339 -3.881137 3.449435 2.613883 -2.598343 2.411988 -7.712865 5.245069 -1.580300 -3.784900 1.481500 -97.344440 12.229548 48.806161 29.395117 -40.918748 -8.646792 -0.199273 2.337956 -10.916252 -7.125000 0.000000 0.000000 94.285331 -5.661625 13.908887 -41.231488 49.014932 -18.346400 0.867564 -0.591203 -0.571626 7.125000 0.000000 0.000000 
22.493732 17.990229 -19.003430 -0.944164 9.015352 11.406918 -16.183252 -0.655303 -28.790770 1.682382 10.058949 28.746077 0.452328 -0.617769 -10.784194 0.913900 6.091500 17.050100 13.560979 6.573672 -44.767905 -17.673102 -19.519197 83.600727 -2.985304 -1.138278 32.314938 -1.590400 -7.955000 22.577600 0.553078 5.016121 -3.863482 3.488378 2.427712 -2.508400 2.453746 -7.432718 5.253109 -1.505900 -3.643500 1.465500 -97.485808 11.239901 48.564697 29.172600 -40.785930 -8.554924 -0.211819 2.359860 -9.718023 -7.125000 0.000000 0.000000 94.646034 -5.687841 13.667919 -39.196326 47.794533 -16.922343 0.821063 -0.583036 0.022596 7.125000 0.000000 0.000000 
22.515604 18.000847 -18.866362 -0.739511 9.228580 11.361134 -16.369317 -0.698719 -28.099758 1.635407 9.966906 28.487813 0.476330 -0.662216 -11.065612 0.898100 6.039700 16.899800 13.094700 7.134045 -46.202352 -17.943404 -19.561675 84.399984 -2.757197 -0.973822 31.029715 -1.647900 -8.090500 22.989300 0.564741 4.648283 -3.851729 3.524062 2.241483 -2.403727 2.492999 -7.181826 5.299065 -1.444000 -3.515300 1.465400 -97.567441 10.313882 48.301966 29.157632 -40.827925 -8.563886 -0.233661 2.376393 -8.395707 -7.125000 0.000000 0.000000 94.964979 -5.739654 13.445714 -37.197895 46.496278 -15.550679 0.773071 -0.580440 0.623728 7.125000 0.000000 0.000000 
22.537369 18.010508 -18.727913 -0.542407 9.469553 11.327550 -16.555888 -0.682891 -27.451334 1.591170 9.880084 28.242112 0.509453 -0.801856 -11.319276 0.885900 5.999600 16.783400 12.667249 7.660193 -47.545579 -18.114821 -19.593124 84.894668 -2.558349 -1.206540 29.773745 -1.737100 -8.295500 23.615100 0.576971 4.284127 -3.844689 3.549018 2.057023 -2.289216 2.535454 -6.959674 5.376556 -1.389800 -3.400000 1.479500 -97.583237 9.472154 48.025947 29.389785 -41.077612 -8.692863 -0.263858 2.384620 -7.048479 -7.125000 0.000000 0.000000 95.242681 -5.819337 13.256988 -35.253872 45.132867 -14.245150 0.724685 -0.583729 1.235228 7.125000 0.000000 0.000000 
22.557860 18.019214 -18.587554 -0.348513 9.726172 11.285693 -16.744268 -0.581559 -26.830068 1.550103 9.800074 28.012126 0.552585 -1.039560 -11.558425 0.876300 5.968100 16.691900 12.277185 8.162655 -48.753394 -18.181238 -19.614793 85.071262 -2.406345 -1.798843 28.689786 -1.839200 -8.522800 24.313600 0.594014 3.931346 -3.837187 3.585224 1.878249 -2.168750 2.582619 -6.767756 5.484182 -1.341500 -3.298600 1.507900 -97.524239 8.727373 47.777673 29.904284 -41.562535 -8.966444 -0.299923 2.385507 -5.813202 -7.125000 0.000000 0.000000 95.475268 -5.932515 13.091620 -33.382849 43.720557 -13.017812 0.677472 -0.593534 1.866749 7.125000 0.000000 0.000000 
22.577396 18.026222 -18.445708 -0.157708 9.977300 11.227643 -16.931867 -0.405060 -26.224874 1.513482 9.728668 27.803773 0.604661 -1.358601 -11.795696 0.875700 5.965900 16.685500 11.914198 8.649856 -49.809590 -18.139607 -19.626937 84.923636 -2.293900 -2.638515 27.799653 -1.895100 -8.644000 24.687900 0.614533 3.594543 -3.827144 3.628155 1.707287 -2.045046 2.636293 -6.602435 5.612756 -1.295400 -3.209600 1.546600 -97.386020 8.082196 47.583615 30.725219 -42.291335 -9.402244 -0.341112 2.378039 -4.848996 -7.125000 0.000000 0.000000 95.664407 -6.084775 12.949287 -31.599804 42.277866 -11.877262 0.633005 -0.609810 2.570396 7.125000 0.000000 0.000000 
